/* XPM */
static char * molecule3D_xpm[] = {
"18 16 120 2",
"  	c None",
". 	c #840000",
"+ 	c #F3E6E5",
"@ 	c #8B8B8B",
"# 	c #7C4142",
"$ 	c #D60000",
"% 	c #B5BCBC",
"& 	c #BD0000",
"* 	c #BC4849",
"= 	c #BE8E8E",
"- 	c #951717",
"; 	c #CCCCCC",
"> 	c #717A79",
", 	c #DC2120",
"' 	c #B5B5B5",
") 	c #BB6A6A",
"! 	c #A50000",
"~ 	c #9CA6A5",
"{ 	c #D8D8D8",
"] 	c #B04948",
"^ 	c #E60000",
"/ 	c #C01919",
"( 	c #E2B8B8",
"_ 	c #FBF8F8",
": 	c #C5A6A6",
"< 	c #747373",
"[ 	c #8A3032",
"} 	c #DFBDBE",
"| 	c #CC6666",
"1 	c #AA8E8E",
"2 	c #CC0000",
"3 	c #990000",
"4 	c #BD7A7A",
"5 	c #ECD5D5",
"6 	c #845756",
"7 	c #C5C5C5",
"8 	c #DB9A9A",
"9 	c #B50000",
"0 	c #D5A6A5",
"a 	c #ADADAD",
"b 	c #858585",
"c 	c #CC6666",
"d 	c #DE0000",
"e 	c #A32020",
"f 	c #EF0000",
"g 	c #B96060",
"h 	c #F8F8F8",
"i 	c #999999",
"j 	c #CC3333",
"k 	c #910808",
"l 	c #E4C5C5",
"m 	c #D72F2F",
"n 	c #AD0000",
"o 	c #E24848",
"p 	c #CC9999",
"q 	c #D48485",
"r 	c #E45A5A",
"s 	c #EEDEDE",
"t 	c #A63E3E",
"u 	c #EDA3A2",
"v 	c #E6D2D1",
"w 	c #A25B5B",
"x 	c #A53838",
"y 	c #C50000",
"z 	c #96ABAB",
"A 	c #8C0000",
"B 	c #8C9191",
"C 	c #E7D1D0",
"D 	c #698484",
"E 	c #BECCCC",
"F 	c #D81213",
"G 	c #F0F0F0",
"H 	c #B15151",
"I 	c #E99493",
"J 	c #B01212",
"K 	c #B81213",
"L 	c #BDBDBD",
"M 	c #DE6868",
"N 	c #AC292A",
"O 	c #CA8F8F",
"P 	c #FFDCDC",
"Q 	c #D1191A",
"R 	c #E90708",
"S 	c #DA5959",
"T 	c #DB2B2B",
"U 	c #AAB7B7",
"V 	c #CD4344",
"W 	c #DEDEDE",
"X 	c #991818",
"Y 	c #7F6D6D",
"Z 	c #E25253",
"` 	c #FFFFFF",
" .	c #E10607",
"..	c #B09FA0",
"+.	c #990000",
"@.	c #BF0807",
"#.	c #999999",
"$.	c #A70707",
"%.	c #EEB5B6",
"&.	c #928787",
"*.	c #BEAEAE",
"=.	c #993333",
"-.	c #A7AEAE",
";.	c #E1C2C3",
">.	c #7F7B7B",
",.	c #E78382",
"'.	c #F4CFCF",
").	c #856364",
"!.	c #921313",
"~.	c #D43939",
"{.	c #EB6465",
"].	c #BE7272",
"^.	c #AB9595",
"/.	c #CB7A79",
"(.	c #F1BBBA",
"_.	c #788383",
":.	c #F0ACAC",
"<.	c #D00A0B",
"[.	c #9F0A0A",
"}.	c #A5A5A5",
"              _                     ",
"            2 ^ f (.                ",
"          ].y $ ^ $                 ",
"          0 9 2 $ y                 ",
"            !.3 3                   ",
"            h ! $                   ",
"            h Y ' W                 ",
"          W }.' 7 7 L               ",
"          < }.' 7 7 7 _     I _     ",
"  + & ^ & _.i a L 7 L L ^ y ^ f  .  ",
"  3 & d 3 _.B 1 % a a B & & $ ^ ^   ",
"  ) ! y $ P @.$ <.@       A 9 y K   ",
"    _ x ;.n d f f           }       ",
"          n $ ^ f                   ",
"          . & 2 2                   ",
"            ) H                     "};
